<svg xmlns="http://www.w3.org/2000/svg" viewBox="0 0 512 512" width="512" height="512">
  <defs>
    <linearGradient id="bg" x1="0%" y1="0%" x2="100%" y2="100%">
      <stop offset="0%" stop-color="#FF9500"/>
      <stop offset="100%" stop-color="#FFB340"/>
    </linearGradient>
    <clipPath id="r"><rect width="512" height="512" rx="116"/></clipPath>
    <linearGradient id="sheen" x1="0%" y1="0%" x2="0%" y2="100%">
      <stop offset="0%" stop-color="#ffffff" stop-opacity="0.20"/>
      <stop offset="38%" stop-color="#ffffff" stop-opacity="0.03"/>
      <stop offset="100%" stop-color="#000000" stop-opacity="0.08"/>
    </linearGradient>
    <filter id="shadow" x="-20%" y="-20%" width="140%" height="140%">
      <feDropShadow dx="0" dy="5" stdDeviation="4" flood-color="#000000" flood-opacity="0.25"/>
    </filter>
  </defs>
  <g clip-path="url(#r)">
    <rect width="512" height="512" fill="url(#bg)"/>
    <rect width="512" height="512" fill="url(#sheen)"/>
    <g filter="url(#shadow)">
      
      <g transform="translate(136 136) scale(10)">
        <path d="M7.2,14.5l0.5,-1.6c0.3,-1 1.2,-1.7 2.2,-1.9l0.6,-1.6l1.5,-0.5l0.3,-2l1.3,-1.3l1.3,1.3l0.3,2l1.5,0.5l0.6,1.6c1,0.2 1.9,0.9 2.2,1.9l0.5,1.6h-12.8z" fill="#ffffff" fill-opacity="0.96"/>
        <path d="M8.2,14.5h7.6l-0.3,1c-0.2,0.7 -0.8,1.1 -1.5,1.1h-4c-0.7,0 -1.3,-0.4 -1.5,-1.1l-0.3,-1z" fill="#ffffff" fill-opacity="0.75"/>
      </g>
    
    </g>
  </g>
</svg>