<svg xmlns="http://www.w3.org/2000/svg" viewBox="0 0 512 512" width="512" height="512">
  <defs>
    <linearGradient id="bg" x1="0%" y1="0%" x2="100%" y2="100%">
      <stop offset="0%" stop-color="#0A84FF"/>
      <stop offset="100%" stop-color="#4DA6FF"/>
    </linearGradient>
    <clipPath id="r"><rect width="512" height="512" rx="116"/></clipPath>
    <linearGradient id="sheen" x1="0%" y1="0%" x2="0%" y2="100%">
      <stop offset="0%" stop-color="#ffffff" stop-opacity="0.20"/>
      <stop offset="38%" stop-color="#ffffff" stop-opacity="0.03"/>
      <stop offset="100%" stop-color="#000000" stop-opacity="0.08"/>
    </linearGradient>
    <filter id="shadow" x="-20%" y="-20%" width="140%" height="140%">
      <feDropShadow dx="0" dy="5" stdDeviation="4" flood-color="#000000" flood-opacity="0.25"/>
    </filter>
  </defs>
  <g clip-path="url(#r)">
    <rect width="512" height="512" fill="url(#bg)"/>
    <rect width="512" height="512" fill="url(#sheen)"/>
    <g transform="translate(5.2 -19.9) scale(20.90)" filter="url(#shadow)">
      
        <path d="M4,8.5h5.2l2,2H20c0.9,0 1.6,0.7 1.6,1.6v6.3c0,0.9 -0.7,1.6 -1.6,1.6H4c-0.9,0 -1.6,-0.7 -1.6,-1.6v-8.3c0,-0.9 0.7,-1.6 1.6,-1.6z" fill="#ffffff" fill-opacity="0.96"/>
        <path d="M8.3,14.6l1.1,1.1l2.6,-2.6l2.6,2.6l1.1,-1.1l-3.7,-3.7l-3.7,3.7z" fill="#0A84FF"/>
        <path d="M8.3,14.6l1.1,1.1l2.6,-2.6" fill="none" stroke="#ffffff" stroke-width="0.9" stroke-linecap="round"/>
    
    </g>
  </g>
</svg>