<svg xmlns="http://www.w3.org/2000/svg" viewBox="0 0 512 512" width="512" height="512">
  <defs>
    <linearGradient id="bg" x1="0%" y1="0%" x2="100%" y2="100%">
      <stop offset="0%" stop-color="#5856D6"/>
      <stop offset="100%" stop-color="#8B5CF6"/>
    </linearGradient>
    <clipPath id="r"><rect width="512" height="512" rx="116"/></clipPath>
    <linearGradient id="sheen" x1="0%" y1="0%" x2="0%" y2="100%">
      <stop offset="0%" stop-color="#ffffff" stop-opacity="0.20"/>
      <stop offset="38%" stop-color="#ffffff" stop-opacity="0.03"/>
      <stop offset="100%" stop-color="#000000" stop-opacity="0.08"/>
    </linearGradient>
    <filter id="shadow" x="-20%" y="-20%" width="140%" height="140%">
      <feDropShadow dx="0" dy="5" stdDeviation="4" flood-color="#000000" flood-opacity="0.25"/>
    </filter>
  </defs>
  <g clip-path="url(#r)">
    <rect width="512" height="512" fill="url(#bg)"/>
    <rect width="512" height="512" fill="url(#sheen)"/>
    <g transform="translate(-40.1 -42.6) scale(24.67)" filter="url(#shadow)">
      
        <path d="M12,3.8l8.2,6.8V19c0,0.8 -0.6,1.4 -1.4,1.4h-4.8v-5.2h-4v5.2H5.2c-0.8,0 -1.4,-0.6 -1.4,-1.4v-8.4L12,3.8z" fill="#ffffff" fill-opacity="0.96"/>
        <path d="M12,5.6l6.4,5.3v7h-3v-5.5H8.6v5.5h-3v-7L12,5.6z" fill="#5856D6" fill-opacity="0.3"/>
    
    </g>
  </g>
</svg>