<svg xmlns="http://www.w3.org/2000/svg" viewBox="0 0 512 512" width="512" height="512">
  <defs>
    <linearGradient id="bg" x1="0%" y1="0%" x2="100%" y2="100%">
      <stop offset="0%" stop-color="#FFD60A"/>
      <stop offset="100%" stop-color="#FFE566"/>
    </linearGradient>
    <clipPath id="r"><rect width="512" height="512" rx="116"/></clipPath>
    <linearGradient id="sheen" x1="0%" y1="0%" x2="0%" y2="100%">
      <stop offset="0%" stop-color="#ffffff" stop-opacity="0.20"/>
      <stop offset="38%" stop-color="#ffffff" stop-opacity="0.03"/>
      <stop offset="100%" stop-color="#000000" stop-opacity="0.08"/>
    </linearGradient>
    <filter id="shadow" x="-20%" y="-20%" width="140%" height="140%">
      <feDropShadow dx="0" dy="5" stdDeviation="4" flood-color="#000000" flood-opacity="0.25"/>
    </filter>
  </defs>
  <g clip-path="url(#r)">
    <rect width="512" height="512" fill="url(#bg)"/>
    <rect width="512" height="512" fill="url(#sheen)"/>
    <g filter="url(#shadow)">
      
      <g transform="translate(136 136) scale(10)">
        <path d="M5,4.2h9l6,6v9.6c0,1 -0.8,1.8 -1.8,1.8H5c-1,0 -1.8,-0.8 -1.8,-1.8V6c0,-1 0.8,-1.8 1.8,-1.8z" fill="#ffffff" fill-opacity="0.96"/>
        <path d="M13.5,4.2l6,6h-4.8c-0.7,0 -1.2,-0.5 -1.2,-1.2V4.2z" fill="#FFD60A" fill-opacity="0.4"/>
        <path d="M7,12.5h7v1.6H7zM7,16h7v1.6H7z" fill="#FFD60A" fill-opacity="0.85"/>
        <path d="M15.8,7.2l2.2,2.2l-4.8,4.8l-2.7,0.5l0.5,-2.7l4.8,-4.8z" fill="#ffffff"/>
        <path d="M17,6l1.2,1.2l-0.9,0.9l-1.2,-1.2L17,6z" fill="#FFF9DB"/>
      </g>
    
    </g>
  </g>
</svg>