<svg xmlns="http://www.w3.org/2000/svg" viewBox="0 0 512 512" width="512" height="512">
  <defs>
    <linearGradient id="bg" x1="0%" y1="0%" x2="100%" y2="100%">
      <stop offset="0%" stop-color="#5856D6"/>
      <stop offset="100%" stop-color="#7A7AF0"/>
    </linearGradient>
    <clipPath id="r"><rect width="512" height="512" rx="116"/></clipPath>
    <linearGradient id="sheen" x1="0%" y1="0%" x2="0%" y2="100%">
      <stop offset="0%" stop-color="#ffffff" stop-opacity="0.20"/>
      <stop offset="38%" stop-color="#ffffff" stop-opacity="0.03"/>
      <stop offset="100%" stop-color="#000000" stop-opacity="0.08"/>
    </linearGradient>
    <filter id="shadow" x="-20%" y="-20%" width="140%" height="140%">
      <feDropShadow dx="0" dy="5" stdDeviation="4" flood-color="#000000" flood-opacity="0.25"/>
    </filter>
  </defs>
  <g clip-path="url(#r)">
    <rect width="512" height="512" fill="url(#bg)"/>
    <rect width="512" height="512" fill="url(#sheen)"/>
    <g transform="translate(6.4 -101.8) scale(20.80)" filter="url(#shadow)">
      
        <!-- piano body -->
        <rect x="3.8" y="5.8" width="16.4" height="12.4" rx="2.4" fill="#ffffff" fill-opacity="0.97"/>
        <rect x="3.8" y="5.8" width="16.4" height="12.4" rx="2.4" fill="none" stroke="#3d3a66" stroke-opacity="0.15" stroke-width="0.6"/>
        <!-- top rail -->
        <rect x="3.8" y="5.8" width="16.4" height="1.6" rx="0.8" fill="#ffffff" fill-opacity="0.5"/>
        <!-- white keys -->
        <path d="M5.6,7.6h2.2v10.4h-2.2zM9.4,7.6h2.2v10.4h-2.2zM13.2,7.6h2.2v10.4h-2.2zM17,7.6h2.2v10.4h-2.2z" fill="#e9e4ff"/>
        <!-- black keys with depth -->
        <rect x="6.9" y="7.6" width="1.3" height="4.2" rx="0.3" fill="#2d2a3e"/>
        <rect x="10.7" y="7.6" width="1.3" height="4.2" rx="0.3" fill="#2d2a3e"/>
        <rect x="14.5" y="7.6" width="1.3" height="4.2" rx="0.3" fill="#2d2a3e"/>
        <rect x="6.9" y="7.6" width="1.3" height="1.1" rx="0.3" fill="#3d3a66" fill-opacity="0.8"/>
        <rect x="10.7" y="7.6" width="1.3" height="1.1" rx="0.3" fill="#3d3a66" fill-opacity="0.8"/>
        <rect x="14.5" y="7.6" width="1.3" height="1.1" rx="0.3" fill="#3d3a66" fill-opacity="0.8"/>
        <!-- red accent key line -->
        <path d="M3.8,13.2h16.4" stroke="#FF375F" stroke-opacity="0.35" stroke-width="0.5"/>
    
    </g>
    <text x="256" y="442" text-anchor="middle" font-family="'Inter', -apple-system, 'Segoe UI', system-ui, sans-serif" font-size="46" font-weight="800" letter-spacing="-0.8" fill="#ffffff" fill-opacity="0.97">Klavier</text>
  </g>
</svg>