<svg xmlns="http://www.w3.org/2000/svg" viewBox="0 0 512 512" width="512" height="512">
  <defs>
    <linearGradient id="g" x1="0%" y1="0%" x2="0%" y2="100%">
      <stop offset="0%" stop-color="#AF52DE"/>
      <stop offset="100%" stop-color="#D08BFF"/>
    </linearGradient>
    <clipPath id="r"><rect width="512" height="512" rx="112"/></clipPath>
    <radialGradient id="gloss" cx="35%" cy="25%" r="80%">
      <stop offset="0%" stop-color="#ffffff" stop-opacity="0.28"/>
      <stop offset="55%" stop-color="#ffffff" stop-opacity="0.04"/>
      <stop offset="100%" stop-color="#000000" stop-opacity="0.12"/>
    </radialGradient>
  </defs>
  <g clip-path="url(#r)">
    <rect width="512" height="512" fill="url(#g)"/>
    <rect width="512" height="512" fill="url(#gloss)"/>
    <g transform="translate(136 136) scale(10)">
      <path d="M20,6h-8l-2,-2L4,4c-1.1,0 -1.99,0.9 -1.99,2L2,18c0,1.1 0.9,2 2,2h16c1.1,0 2,-0.9 2,-2L22,8c0,-1.1 -0.9,-2 -2,-2zM18,14h-4v4h-4v-4L6,14v-4h4L10,6h4v4h4v4z" fill="#ffffff" fill-opacity="0.96"/>
    </g>
  </g>
</svg>