<svg xmlns="http://www.w3.org/2000/svg" viewBox="0 0 512 512" width="512" height="512">
  <defs>
    <linearGradient id="bg" x1="0%" y1="0%" x2="100%" y2="100%">
      <stop offset="0%" stop-color="#8E8E93"/>
      <stop offset="100%" stop-color="#B0B0B6"/>
    </linearGradient>
    <clipPath id="r"><rect width="512" height="512" rx="116"/></clipPath>
    <linearGradient id="sheen" x1="0%" y1="0%" x2="0%" y2="100%">
      <stop offset="0%" stop-color="#ffffff" stop-opacity="0.20"/>
      <stop offset="38%" stop-color="#ffffff" stop-opacity="0.03"/>
      <stop offset="100%" stop-color="#000000" stop-opacity="0.08"/>
    </linearGradient>
    <filter id="shadow" x="-20%" y="-20%" width="140%" height="140%">
      <feDropShadow dx="0" dy="5" stdDeviation="4" flood-color="#000000" flood-opacity="0.25"/>
    </filter>
  </defs>
  <g clip-path="url(#r)">
    <rect width="512" height="512" fill="url(#bg)"/>
    <rect width="512" height="512" fill="url(#sheen)"/>
    <g filter="url(#shadow)">
      
      <g transform="translate(136 136) scale(10)">
        <path d="M12,4.6l1.6,1.7l0.3,0.3l0.5,0.1l2.3,-0.3l1.3,1.9l-1.4,1.8l-0.2,0.3l0.1,0.4l0.5,2.2l-1.9,1.3l-1.9,-1.3l-0.4,-0.3l-0.4,0.1l-1.9,1.4l-2,-1.3l0.5,-2.2l0.1,-0.4l-0.2,-0.3l-1.5,-1.8l1.3,-1.9l2.3,0.3l0.5,-0.1l0.3,-0.3L12,4.6z" fill="#ffffff" fill-opacity="0.96"/>
        <circle cx="12" cy="12" r="2.4" fill="#8E8E93"/>
        <circle cx="12" cy="12" r="1.1" fill="#ffffff"/>
      </g>
    
    </g>
  </g>
</svg>