<svg xmlns="http://www.w3.org/2000/svg" viewBox="0 0 512 512" width="512" height="512">
  <defs>
    <linearGradient id="bg" x1="0%" y1="0%" x2="100%" y2="100%">
      <stop offset="0%" stop-color="#8E8E93"/>
      <stop offset="100%" stop-color="#B0B0B6"/>
    </linearGradient>
    <clipPath id="r"><rect width="512" height="512" rx="116"/></clipPath>
    <linearGradient id="sheen" x1="0%" y1="0%" x2="0%" y2="100%">
      <stop offset="0%" stop-color="#ffffff" stop-opacity="0.20"/>
      <stop offset="38%" stop-color="#ffffff" stop-opacity="0.03"/>
      <stop offset="100%" stop-color="#000000" stop-opacity="0.08"/>
    </linearGradient>
    <filter id="shadow" x="-20%" y="-20%" width="140%" height="140%">
      <feDropShadow dx="0" dy="5" stdDeviation="4" flood-color="#000000" flood-opacity="0.25"/>
    </filter>
  </defs>
  <g clip-path="url(#r)">
    <rect width="512" height="512" fill="url(#bg)"/>
    <rect width="512" height="512" fill="url(#sheen)"/>
    <g transform="translate(39.6 -68.4) scale(18.04)" filter="url(#shadow)">
      
        <!-- big gear -->
        <path d="M12,3.4l1.8,1.9l0.4,0.35l0.6,0.12l2.6,-0.4l1.6,2.3l-1.7,2.2l-0.28,0.4l0.16,0.5l0.65,2.5l-2.3,1.5l-2.3,-1.5l-0.5,-0.33l-0.5,0.16l-2.3,1.7l-2.4,-1.5l0.65,-2.5l0.16,-0.5l-0.28,-0.4l-1.75,-2.2l1.6,-2.3l2.6,0.4l0.6,-0.12l0.4,-0.35L12,3.4z" fill="#ffffff" fill-opacity="0.97"/>
        <circle cx="12" cy="12" r="2.7" fill="#8E8E93"/>
        <circle cx="12" cy="12" r="1.2" fill="#ffffff"/>
        <path d="M8.6,6.2c1,-0.7 2.2,-1 3.4,-1" stroke="#ffffff" stroke-width="0.9" stroke-linecap="round" fill="none" fill-opacity="0.5"/>
    
    </g>
    <text x="256" y="442" text-anchor="middle" font-family="'Inter', -apple-system, 'Segoe UI', system-ui, sans-serif" font-size="46" font-weight="800" letter-spacing="-0.8" fill="#ffffff" fill-opacity="0.97">Settings</text>
  </g>
</svg>